<svg fill="none" height="256" viewBox="0 0 256 256" width="256" xmlns="http://www.w3.org/2000/svg" xmlns:xlink="http://www.w3.org/1999/xlink"><linearGradient id="a" gradientUnits="userSpaceOnUse" x1="24" x2="52.1841" y1="125.333" y2="-8.22654"><stop offset="0" stop-color="#053377"/><stop offset="1" stop-color="#2f91f2"/></linearGradient><linearGradient id="b" gradientUnits="userSpaceOnUse" x1="213.444" x2="149.333" y1="19.8185" y2="116"><stop offset="0" stop-color="#4ac1ff"/><stop offset=".926632" stop-color="#155eb5"/></linearGradient><linearGradient id="c" gradientUnits="userSpaceOnUse" x1="110.667" x2="173.333" y1="57.3333" y2="181.333"><stop offset="0" stop-color="#96dfff"/><stop offset=".413439" stop-color="#53adee"/><stop offset="1" stop-color="#006bb9"/></linearGradient><linearGradient id="d" gradientUnits="userSpaceOnUse" x1="160.226" x2="228.309" y1="154.66" y2="267.855"><stop offset=".0799194" stop-color="#4ac1ff"/><stop offset="1" stop-color="#155eb5"/></linearGradient><linearGradient id="e" gradientUnits="userSpaceOnUse" x1="26.7576" x2="90.7099" y1="110.019" y2="263.894"><stop offset="0" stop-color="#2f91f2"/><stop offset="1" stop-color="#053377"/></linearGradient><path d="m64 0c35.3462 0 64 28.6538 64 64v80h-128v-80c0-35.3462 28.6538-64 64-64z" fill="url(#a)"/><path d="m192 0c-35.346 0-64 28.6538-64 64v80h128v-80c0-35.3462-28.654-64-64-64z" fill="url(#b)"/><path d="m192 104c0-35.3462-28.654-64-64-64-35.3462 0-64 28.6538-64 64 0 35.346 28.6538 64 64 64 35.346 0 64-28.654 64-64z" fill="url(#c)"/><path d="m255.945 61.3203c-1.629 38.5507-38.945 69.6797-76.945 69.6797-35.346 0-64 27.982-64 62.5s28.654 62.5 64 62.5c51.216 0 77-45.525 77-92v-99.9998c0-.8977-.018-1.7911-.055-2.6799z" fill="url(#d)"/><path d="m0 64.0005v100.0005c0 46.474 25.7841 92 77 92 35.346 0 64-27.983 64-62.5 0-34.518-28.654-62.5-64-62.5-38 0-75.33004-30.722-76.9454561-69.667-.0362445.8843-.0545439 1.7733-.0545439 2.6665z" fill="url(#e)"/></svg>