<svg width="512" height="512" viewBox="0 0 512 512" fill="none" xmlns="http://www.w3.org/2000/svg">
<circle cx="272.005" cy="144.001" r="144.001" fill="url(#paint0_linear_21_2203)"/>
<path d="M128.032 146.781C120.319 144.969 112.272 144 104 144C46.5627 144 0 190.563 0 248C0 276.719 11.6407 302.719 30.4611 321.532C49.2814 340.376 75.2816 352.001 104 352.001L106.18 351.97C112.54 351.845 118.758 351.157 124.788 349.938C134.743 347.907 144.18 344.47 152.897 339.813C161.173 335.407 168.796 329.876 175.593 323.438L222.7 279.344C168.28 259.5 129.192 207.782 128.032 146.781Z" fill="url(#paint1_linear_21_2203)"/>
<path d="M175.477 323.545C156.842 341.183 131.684 352 104 352C73.9006 352 46.7877 339.214 27.7969 318.776C34.2427 326.435 123.871 422.643 173.311 475.563L173.32 475.55C193.799 497.949 223.258 512 255.998 512C289.426 512 319.434 497.346 339.955 474.13L481.99 321.092C500.545 302.314 511.999 276.484 511.999 248C511.999 190.563 465.436 144 407.998 144C377.939 144 350.861 156.755 331.873 177.156L250.668 253.156V253.173L175.592 323.452L175.695 323.545H175.477Z" fill="url(#paint2_linear_21_2203)"/>
<defs>
<linearGradient id="paint0_linear_21_2203" x1="133.99" y1="-15.0064" x2="334.982" y2="297.51" gradientUnits="userSpaceOnUse">
<stop offset="0.176282" stop-color="#98BEF5"/>
<stop offset="0.94425" stop-color="#3F6FD1"/>
</linearGradient>
<linearGradient id="paint1_linear_21_2203" x1="6.30621" y1="123.579" x2="160.121" y2="345.834" gradientUnits="userSpaceOnUse">
<stop offset="0.1947" stop-color="#4A6DC4"/>
<stop offset="0.9988" stop-color="#16296F"/>
</linearGradient>
<linearGradient id="paint2_linear_21_2203" x1="425.026" y1="462.33" x2="292.769" y2="141.615" gradientUnits="userSpaceOnUse">
<stop stop-color="#283B73"/>
<stop offset="1" stop-color="#436DCD"/>
</linearGradient>
</defs>
</svg>
