<svg width="512" height="512" viewBox="0 0 512 512" fill="none" xmlns="http://www.w3.org/2000/svg">
<circle cx="384.001" cy="304.002" r="128" fill="url(#paint0_linear_21_2365)"/>
<path d="M90.5816 207.803L288 288.002L309.829 408.262C287.059 468.871 228.566 512 160 512C71.6345 512 0 440.366 0 352C0 288.508 36.9826 233.653 90.5816 207.803Z" fill="url(#paint1_linear_21_2365)"/>
<path d="M288.906 292.99L288.905 292.99L288 288.002L90.5815 207.803L90.5719 207.807C83.7487 190.53 80 171.703 80 152C80 68.0528 148.053 0 232 0C315.948 0 384 68.0528 384 152C384 160.172 383.355 168.194 382.114 176.017L288 287.995L288.906 292.99Z" fill="url(#paint2_linear_21_2365)"/>
<defs>
<linearGradient id="paint0_linear_21_2365" x1="466.018" y1="397.449" x2="329.579" y2="163.421" gradientUnits="userSpaceOnUse">
<stop stop-color="#47326B"/>
<stop offset="1" stop-color="#8661C5"/>
</linearGradient>
<linearGradient id="paint1_linear_21_2365" x1="8.77343" y1="177.938" x2="237.465" y2="492.288" gradientUnits="userSpaceOnUse">
<stop offset="0.1947" stop-color="#7252AA"/>
<stop offset="0.9988" stop-color="#372757"/>
</linearGradient>
<linearGradient id="paint2_linear_21_2365" x1="86.3179" y1="-15.2663" x2="287.574" y2="309.42" gradientUnits="userSpaceOnUse">
<stop offset="0.176282" stop-color="#D1AAF4"/>
<stop offset="0.94425" stop-color="#8A5CC9"/>
</linearGradient>
</defs>
</svg>
