<?xml version="1.0" encoding="UTF-8" standalone="no" ?>
<!DOCTYPE svg PUBLIC "-//W3C//DTD SVG 1.1//EN" "http://www.w3.org/Graphics/SVG/1.1/DTD/svg11.dtd">
<svg xmlns="http://www.w3.org/2000/svg" xmlns:xlink="http://www.w3.org/1999/xlink" version="1.1" width="192" height="192" viewBox="0 0 192 192" xml:space="preserve">
<desc>Created with Fabric.js 3.6.6</desc>
<defs>
</defs>
<g transform="matrix(0.96 0 0 0.96 96 96)"  >
<g style=""   >
		<g transform="matrix(1 0 0 1 -56.96 50.22)" clip-path="url(#CLIPPATH_32)"  >
<linearGradient id="SVGID_29" gradientUnits="userSpaceOnUse" gradientTransform="matrix(1 0 0 1 0 0)"  x1="59.0467" y1="146.544" x2="3.82062" y2="167.422">
<stop offset="0%" style="stop-color:rgb(91,42,100);stop-opacity: 1"/>
<stop offset="100%" style="stop-color:rgb(145,76,170);stop-opacity: 1"/>
</linearGradient>
<clipPath id="CLIPPATH_32" >
	<rect transform="matrix(1 0 0 1 56.96 -50.21)" x="-100" y="-100" rx="0" ry="0" width="200" height="200" />
</clipPath>
<path style="stroke: none; stroke-width: 1; stroke-dasharray: none; stroke-linecap: butt; stroke-dashoffset: 0; stroke-linejoin: miter; stroke-miterlimit: 4; fill: url(#SVGID_29); fill-rule: nonzero; opacity: 1;"  transform=" translate(-43.04, -150.21)" d="M 14.7771 187.261 C -8.89149 168.664 1.09126 139.763 9.0412 127.637 C 11.2048 122.454 24.5887 114.504 41.3438 102.881 C 61.9934 95.5151 74.3007 112.089 77.8731 121.297 C 83.1562 138.002 91.2772 173.796 81.4958 183.336 C 69.2691 195.261 44.3628 210.507 14.7771 187.261 Z" stroke-linecap="round" />
</g>
		<g transform="matrix(1 0 0 1 18.62 -0.43)" clip-path="url(#CLIPPATH_33)"  >
<linearGradient id="SVGID_30" gradientUnits="userSpaceOnUse" gradientTransform="matrix(1 0 0 1 0 0)"  x1="85.1159" y1="-0.00000157069" x2="186.076" y2="193.518">
<stop offset="0%" style="stop-color:rgb(201,106,224);stop-opacity: 1"/>
<stop offset="85.3725%" style="stop-color:rgb(81,45,95);stop-opacity: 1"/>
<stop offset="97.6765%" style="stop-color:rgb(79,49,91);stop-opacity: 1"/>
</linearGradient>
<clipPath id="CLIPPATH_33" >
	<rect transform="matrix(1 0 0 1 -18.62 0.43)" x="-100" y="-100" rx="0" ry="0" width="200" height="200" />
</clipPath>
<path style="stroke: none; stroke-width: 1; stroke-dasharray: none; stroke-linecap: butt; stroke-dashoffset: 0; stroke-linejoin: miter; stroke-miterlimit: 4; fill: url(#SVGID_30); fill-rule: nonzero; opacity: 1;"  transform=" translate(-118.62, -99.57)" d="M 185.104 195.453 C 177.954 199.054 169.658 199.551 163.652 198.884 C 139.203 198.884 106.142 88.3502 84.3536 67.6514 C 66.238 50.4416 44.106 60.15 37.9937 67.6514 C 40.0311 62.8356 48.5543 44.9485 62.1124 19.6104 C 80.6021 -12.1873 120.081 -0.795643 131.57 21.833 C 139.26 35.2267 158.608 70.8189 176.785 107.308 C 191.415 136.679 214.41 180.695 185.104 195.453 Z" stroke-linecap="round" />
</g>
		<g transform="matrix(1 0 0 1 -11.89 27.44)" clip-path="url(#CLIPPATH_34)"  >
<linearGradient id="SVGID_31" gradientUnits="userSpaceOnUse" gradientTransform="matrix(1 0 0 1 0 0)"  x1="58.7991" y1="59.8423" x2="127.859" y2="199.275">
<stop offset="0%" style="stop-color:rgb(235,170,245);stop-opacity: 1"/>
<stop offset="67.9019%" style="stop-color:rgb(183,94,202);stop-opacity: 1"/>
</linearGradient>
<clipPath id="CLIPPATH_34" >
	<rect transform="matrix(1 0 0 1 11.88 -27.44)" x="-100" y="-100" rx="0" ry="0" width="200" height="200" />
</clipPath>
<path style="stroke: none; stroke-width: 1; stroke-dasharray: none; stroke-linecap: butt; stroke-dashoffset: 0; stroke-linejoin: miter; stroke-miterlimit: 4; fill: url(#SVGID_31); fill-rule: nonzero; opacity: 1;"  transform=" translate(-88.12, -127.44)" d="M 125.882 199.275 H 167.501 C 144.077 199.275 119.236 116.369 88.8401 69.7142 C 76.4046 50.6271 46.893 51.7766 38.2306 67.9791 C 27.8197 87.4518 8.73242 127.843 8.73242 127.843 C 8.73242 127.843 39.9657 97.7664 60.7878 145.773 C 67.6846 161.674 74.4888 173.265 80.5191 181.52 C 90.821 195.621 108.418 199.275 125.882 199.275 Z" stroke-linecap="round" />
</g>
</g>
</g>
</svg>