<svg width="200" height="200" viewBox="0 0 200 200" fill="none" xmlns="http://www.w3.org/2000/svg">
<path d="M187.469 50.3873C174.603 37.521 153.806 40.6379 148.549 42.5637C158.252 60.3972 154.132 70.6383 148.549 76.6572C135.225 91.0225 109.647 116.03 98.1548 126.273C83.7896 139.077 60.6803 169.057 55.6837 173.429C51.6864 176.927 52.7689 181.34 53.8099 183.11C55.0591 184.671 59.9308 189.606 69.4244 196.851C75.6356 201.591 85.3046 200.262 93.3762 197.552C100.758 195.074 106.812 189.923 112.174 184.277L185.906 106.639C194.063 98.0496 200.245 87.1591 198.705 75.414C197.577 66.8017 194.447 57.3652 187.469 50.3873Z" fill="#136073"/>
<path d="M68.2362 10.4871L10.7896 66.969C2.22032 75.5378 -10.4844 84.3744 15.3753 96.4167C27.0105 101.835 44.2932 103.62 52.9827 97.3446C60.1435 90.747 76.7423 73.7106 98.8909 52.9692C127.053 26.5969 126.7 21.2898 110.693 5.2826C99.9759 -5.43449 78.4417 2.13799 68.2362 10.4871Z" fill="#158794"/>
<path d="M129.52 17.7781C124.267 11.8678 118.219 9.44698 115.665 10.8151C128.039 22.3857 115.214 37.9751 109.286 42.3532C93.5521 56.4449 59.6402 90.416 30.8555 119.202C10.8817 139.177 36.7547 176.669 58.508 187.113C52.1188 183.432 53.8614 176.838 59.3053 171.119C100.579 127.765 101.198 127.146 126.795 101.55L128.35 99.9941C146.861 81.4838 153.359 74.0949 154.579 63.8913C155.942 52.4888 149.506 41.7441 142.19 32.8925C137.272 26.9417 132.343 20.9537 129.52 17.7781Z" fill="#4DE8F2"/>
</svg>
